<?xml version="1.0" encoding="UTF-8"?><svg xmlns="http://www.w3.org/2000/svg" viewBox="0 0 156.38 179.89"><defs><style>.d{fill:#fff;stroke-width:4px;}.d,.e{stroke:#231f20;}.d,.e,.f{stroke-miterlimit:10;}.f{fill:#231f20;stroke:#000;}</style></defs><g id="a"/><g id="b"><g id="c"><path class="d" d="M34.94,108.22v30.64c8.83-5.19,15.98-7.78,26.55-8.1,18.19-.54,35.7,.46,53.11,5.54v-28.09s-9.45-4.97-9.7-5.1c-8.04-4.23-21.21-5.78-30.2-6.25-14.79-.77-26.91,4.93-39.76,11.35Z"/><path class="d" d="M114.6,110.77c1.83-3.26,5.68-4.26,8.81-5.91,5.57-2.94,11.03-6.15,15.89-10.18,6.32-5.24,11.64-12,13.87-19.9,3.58-12.67-1.09-27.36-10.75-36.15-10.68-9.72-27.37-3.56-39.61-.09-3.77-9.74-7.62-19.45-15.31-26.85-2.56-2.46-5.4-4.66-8.55-6.3-8.03-4.17-17.85-4.39-26.34-1.25s-15.6,9.38-20.46,16.99c-7.1,11.12-2.03,20.15-.8,31.33-4.99-5.87-4.85-12.95-13.46-9.71-5.99,2.25-10.55,6.86-13.05,12.72-8.93,20.87,3.77,53.79,30.11,52.74"/><path class="d" d="M32.6,109.13c3.91-1.67,7.4-4.19,11.18-6.13,9.04-4.65,19.53-5.91,29.68-5.25,8.14,.53,16.05,2.29,23.97,4.12,6.19,1.42,11.13,5.06,17.17,6.35"/><path class="f" d="M43.78,103c-4.43,2.04-10.83-21.73-10.82-24.76,3.78,2.16,3.33,8.38,5.12,11.88,2.26,4.42,5.74,7.77,9.13,11.31l-3.42,1.57Z"/><path class="e" d="M68.32,97.06c-.8-.65-1.32-1.57-1.83-2.47-1.22-2.17-2.45-4.36-3.38-6.67-1.12-2.8-.86-4.72-1.12-7.54-.17-1.84-1.92-2.88-2.39-4.68-.58-2.26,.25-4.5,1.64-6.29-.71,.92,3.43,8.42,3.83,9.83,.8,2.85,1.29,5.84,2.51,8.56,1.11,2.46,3.87,4.83,3.87,7.65,0,2.03-.91,3.34-3.07,1.67-.02-.02-.05-.04-.07-.06Z"/><path class="e" d="M91.23,99.92c-.15-.29-.18-.77-.04-1.48,.53-2.79,3.49-5.78,4.39-8.68,1.92-6.18,.91-12.83,1.19-19.3,1.53,1.6,2.18,3.84,2.61,6.01,1.44,7.17,1.02,15.19-3.41,21.01-1.08,1.42-4.08,3.74-4.74,2.43Z"/><path class="e" d="M74.72,158.2c-.09,.07-.19,.15-.28,.22-2.13-3.76-2.43-7.47-7.7-8.47-3.61-.68-7.37,.57-10.45,2.58-4.18,2.73-7.37,6.78-11.52,9.57-5.17,3.46-11.76,4.73-17.85,3.44-5.51-1.17-8.71-4.27-12.88-7.66-.68-.55-1.29-1.03-2.13-1.13-.49,2.99,3.84,7.73,5.77,9.78,1.86,1.98,4.03,3.64,6.18,5.29,4.36,3.34,9.46,4.68,14.79,5.96,10.28,2.47,18.52,1.07,28.2-2.77,2.33-.92,4.7-2.24,6.93-3.12,3.32-1.31,8.82,2.45,12.46,3.53,7.05,2.1,16.09,5.36,23.37,3.35,8.13-2.25,15.59-4.13,21.6-10.42,1.9-1.98,3.56-4.19,5-6.52,.66-1.07,1.59-2.31,1.88-3.54,.13-.54-.35-2.18,0-2.56l-2.81,3.06c-3.42,3.73-13.2,8.28-18.27,7.95-4.71-.31-10.16-6.36-13.75-9.09-3.83-2.91-7.81-5.9-12.49-7-6.16-1.45-10.15,1.32-14.1,5.59-.63,.68-1.24,1.41-1.94,1.98Z"/></g></g></svg>