<?xml version="1.0" encoding="UTF-8"?><svg xmlns="http://www.w3.org/2000/svg" viewBox="0 0 248.57 213.43"><defs><style>.d{fill:#fff;stroke-width:4px;}.d,.e{stroke:#231f20;}.d,.e,.f{stroke-miterlimit:10;}.f{stroke:#000;}.f,.g{fill:#231f20;}</style></defs><g id="a"/><g id="b"><g id="c"><g><path class="d" d="M81.04,108.22v30.64c8.83-5.19,15.98-7.78,26.55-8.1,18.19-.54,35.7,.46,53.11,5.54v-28.09s-9.45-4.97-9.7-5.1c-8.04-4.23-21.21-5.78-30.2-6.25-14.79-.77-26.91,4.93-39.76,11.35Z"/><path class="d" d="M160.7,110.77c1.83-3.26,5.68-4.26,8.81-5.91,5.57-2.94,11.03-6.15,15.89-10.18,6.32-5.24,11.64-12,13.87-19.9,3.58-12.67-1.09-27.36-10.75-36.15-10.68-9.72-27.37-3.56-39.61-.09-3.77-9.74-7.62-19.45-15.31-26.85-2.56-2.46-5.4-4.66-8.55-6.3-8.03-4.17-17.85-4.39-26.34-1.25s-15.6,9.38-20.46,16.99c-7.1,11.12-2.03,20.15-.8,31.33-4.99-5.87-4.85-12.95-13.46-9.71-5.99,2.25-10.55,6.86-13.05,12.72-8.93,20.87,3.77,53.79,30.11,52.74"/><path class="d" d="M78.7,109.13c3.91-1.67,7.4-4.19,11.18-6.13,9.04-4.65,19.53-5.91,29.68-5.25,8.14,.53,16.05,2.29,23.97,4.12,6.19,1.42,11.13,5.06,17.17,6.35"/><path class="f" d="M89.88,103c-4.43,2.04-10.83-21.73-10.82-24.76,3.78,2.16,3.33,8.38,5.12,11.88,2.26,4.42,5.74,7.77,9.13,11.31l-3.42,1.57Z"/><path class="e" d="M114.41,97.06c-.8-.65-1.32-1.57-1.83-2.47-1.22-2.17-2.45-4.36-3.38-6.67-1.12-2.8-.86-4.72-1.12-7.54-.17-1.84-1.92-2.88-2.39-4.68-.58-2.26,.25-4.5,1.64-6.29-.71,.92,3.43,8.42,3.83,9.83,.8,2.85,1.29,5.84,2.51,8.56,1.11,2.46,3.87,4.83,3.87,7.65,0,2.03-.91,3.34-3.07,1.67-.02-.02-.05-.04-.07-.06Z"/><path class="e" d="M137.33,99.92c-.15-.29-.18-.77-.04-1.48,.53-2.79,3.49-5.78,4.39-8.68,1.92-6.18,.91-12.83,1.19-19.3,1.53,1.6,2.18,3.84,2.61,6.01,1.44,7.17,1.02,15.19-3.41,21.01-1.08,1.42-4.08,3.74-4.74,2.43Z"/><path class="e" d="M120.82,158.2c-.09,.07-.19,.15-.28,.22-2.13-3.76-2.43-7.47-7.7-8.47-3.61-.68-7.37,.57-10.45,2.58-4.18,2.73-7.37,6.78-11.52,9.57-5.17,3.46-11.76,4.73-17.85,3.44-5.51-1.17-8.71-4.27-12.88-7.66-.68-.55-1.29-1.03-2.13-1.13-.49,2.99,3.84,7.73,5.77,9.78,1.86,1.98,4.03,3.64,6.18,5.29,4.36,3.34,9.46,4.68,14.79,5.96,10.28,2.47,18.52,1.07,28.2-2.77,2.33-.92,4.7-2.24,6.93-3.12,3.32-1.31,8.82,2.45,12.46,3.53,7.05,2.1,16.09,5.36,23.37,3.35,8.13-2.25,15.59-4.13,21.6-10.42,1.9-1.98,3.56-4.19,5-6.52,.66-1.07,1.59-2.31,1.88-3.54,.13-.54-.35-2.18,0-2.56l-2.81,3.06c-3.42,3.73-13.2,8.28-18.27,7.95-4.71-.31-10.16-6.36-13.75-9.09-3.83-2.91-7.81-5.9-12.49-7-6.16-1.45-10.15,1.32-14.1,5.59-.63,.68-1.24,1.41-1.94,1.98Z"/><g><path class="g" d="M9.38,189.95c-1.6,0-2.83,.6-3.71,1.8-.88,1.2-1.31,2.87-1.31,5.01,0,4.46,1.67,6.69,5.02,6.69,1.4,0,3.1-.35,5.1-1.05v3.55c-1.64,.68-3.47,1.03-5.5,1.03-2.91,0-5.13-.88-6.67-2.65-1.54-1.76-2.31-4.29-2.31-7.59,0-2.08,.38-3.9,1.13-5.46,.76-1.56,1.84-2.76,3.26-3.6,1.42-.83,3.08-1.25,4.98-1.25s3.89,.47,5.85,1.41l-1.37,3.45c-.75-.36-1.5-.67-2.26-.93-.76-.26-1.5-.4-2.23-.4Z"/><path class="g" d="M39.79,206.7h-4.17v-8.93c0-2.21-.82-3.31-2.46-3.31-1.17,0-2.01,.4-2.53,1.19s-.78,2.08-.78,3.86v7.19h-4.17v-21.27h4.17v4.33c0,.34-.03,1.13-.1,2.38l-.1,1.23h.22c.93-1.49,2.41-2.24,4.43-2.24,1.8,0,3.16,.48,4.09,1.45,.93,.97,1.39,2.35,1.39,4.16v9.97Z"/><path class="g" d="M58.27,206.98c-2.46,0-4.38-.68-5.77-2.04-1.39-1.36-2.08-3.28-2.08-5.77s.64-4.54,1.92-5.94c1.28-1.4,3.05-2.1,5.31-2.1s3.84,.62,5.04,1.85,1.8,2.93,1.8,5.1v2.02h-9.86c.05,1.18,.4,2.11,1.05,2.78s1.58,1,2.76,1c.92,0,1.79-.1,2.61-.29s1.68-.5,2.57-.92v3.23c-.73,.36-1.51,.64-2.34,.81-.83,.18-1.84,.27-3.04,.27Zm-.59-12.88c-.88,0-1.58,.28-2.08,.84-.5,.56-.79,1.36-.86,2.39h5.85c-.02-1.03-.29-1.83-.81-2.39-.52-.56-1.22-.84-2.11-.84Z"/><path class="g" d="M83.62,194.55h-3.61v12.15h-4.17v-12.15h-2.3v-2.01l2.3-1.12v-1.12c0-1.74,.43-3.01,1.29-3.81,.86-.8,2.23-1.2,4.12-1.2,1.44,0,2.72,.21,3.84,.64l-1.07,3.06c-.84-.26-1.61-.4-2.32-.4-.59,0-1.02,.18-1.29,.53-.26,.35-.4,.8-.4,1.35v.96h3.61v3.13Z"/><path class="g" d="M103.95,202.16c0,1.57-.54,2.76-1.63,3.58-1.09,.82-2.72,1.23-4.89,1.23-1.11,0-2.06-.08-2.84-.23-.78-.15-1.52-.37-2.2-.66v-3.45c.77,.36,1.65,.67,2.62,.92s1.83,.37,2.56,.37c1.51,0,2.27-.44,2.27-1.31,0-.33-.1-.59-.3-.8-.2-.21-.55-.44-1.04-.7s-1.15-.56-1.97-.91c-1.18-.49-2.04-.95-2.59-1.37-.55-.42-.95-.9-1.2-1.44-.25-.54-.38-1.21-.38-2,0-1.36,.53-2.41,1.58-3.15,1.05-.74,2.54-1.11,4.48-1.11s3.63,.4,5.37,1.2l-1.26,3.01c-.77-.33-1.48-.6-2.15-.81-.67-.21-1.34-.31-2.04-.31-1.23,0-1.85,.33-1.85,1,0,.37,.2,.7,.59,.97s1.26,.68,2.6,1.22c1.19,.48,2.07,.93,2.62,1.35,.56,.42,.97,.9,1.23,1.45,.26,.55,.4,1.2,.4,1.96Z"/><path class="g" d="M120.91,203.65c.73,0,1.6-.16,2.62-.48v3.1c-1.04,.46-2.32,.7-3.83,.7-1.67,0-2.88-.42-3.64-1.26-.76-.84-1.14-2.11-1.14-3.79v-7.37h-2v-1.76l2.3-1.39,1.2-3.23h2.67v3.25h4.28v3.13h-4.28v7.37c0,.59,.17,1.03,.5,1.31,.33,.28,.77,.42,1.32,.42Z"/><path class="g" d="M143.61,206.7l-.81-2.08h-.11c-.7,.88-1.42,1.5-2.17,1.84-.74,.34-1.71,.51-2.91,.51-1.47,0-2.62-.42-3.47-1.26-.84-.84-1.26-2.03-1.26-3.58s.57-2.82,1.7-3.59,2.85-1.2,5.13-1.28l2.65-.08v-.67c0-1.55-.79-2.32-2.38-2.32-1.22,0-2.66,.37-4.31,1.11l-1.38-2.82c1.76-.92,3.71-1.38,5.85-1.38s3.62,.45,4.72,1.34c1.09,.89,1.64,2.25,1.64,4.07v10.19h-2.91Zm-1.23-7.08l-1.61,.05c-1.21,.04-2.12,.25-2.71,.66-.59,.4-.89,1.01-.89,1.83,0,1.18,.67,1.76,2.02,1.76,.97,0,1.74-.28,2.32-.83,.58-.56,.87-1.29,.87-2.21v-1.26Z"/><path class="g" d="M171.39,191.42v2.12l-2.39,.62c.44,.68,.66,1.45,.66,2.3,0,1.64-.57,2.92-1.72,3.83s-2.73,1.37-4.76,1.37l-.75-.04-.62-.07c-.43,.33-.64,.69-.64,1.09,0,.6,.77,.9,2.3,.9h2.6c1.68,0,2.96,.36,3.83,1.08s1.32,1.78,1.32,3.17c0,1.79-.75,3.17-2.24,4.16s-3.63,1.48-6.42,1.48c-2.13,0-3.76-.37-4.89-1.11s-1.69-1.78-1.69-3.12c0-.92,.29-1.69,.86-2.31s1.42-1.06,2.53-1.33c-.43-.18-.8-.48-1.12-.9s-.48-.85-.48-1.32c0-.58,.17-1.07,.51-1.46s.83-.77,1.46-1.14c-.8-.35-1.44-.9-1.91-1.67s-.7-1.67-.7-2.71c0-1.67,.54-2.96,1.63-3.87,1.08-.91,2.63-1.37,4.65-1.37,.43,0,.94,.04,1.52,.12,.59,.08,.96,.13,1.13,.17h5.33Zm-11.8,17.45c0,.57,.28,1.03,.83,1.35s1.32,.49,2.32,.49c1.5,0,2.67-.21,3.51-.62s1.27-.97,1.27-1.68c0-.57-.25-.97-.75-1.19s-1.28-.33-2.32-.33h-2.16c-.77,0-1.41,.18-1.92,.54s-.77,.84-.77,1.43Zm1.52-12.44c0,.83,.19,1.49,.57,1.97s.96,.72,1.73,.72,1.36-.24,1.72-.72,.55-1.14,.55-1.97c0-1.84-.76-2.76-2.27-2.76s-2.3,.92-2.3,2.76Z"/><path class="g" d="M189.71,191.13c.57,0,1.03,.04,1.41,.12l-.31,3.91c-.34-.09-.75-.14-1.23-.14-1.33,0-2.37,.34-3.11,1.03s-1.11,1.64-1.11,2.87v7.78h-4.17v-15.29h3.16l.62,2.57h.21c.47-.86,1.11-1.55,1.92-2.07,.81-.52,1.68-.79,2.63-.79Z"/><path class="g" d="M210.87,206.7l-.81-2.08h-.11c-.7,.88-1.42,1.5-2.17,1.84s-1.71,.51-2.91,.51c-1.47,0-2.62-.42-3.47-1.26s-1.26-2.03-1.26-3.58,.57-2.82,1.7-3.59,2.85-1.2,5.13-1.28l2.65-.08v-.67c0-1.55-.79-2.32-2.38-2.32-1.22,0-2.66,.37-4.31,1.11l-1.38-2.82c1.76-.92,3.71-1.38,5.85-1.38s3.62,.45,4.72,1.34c1.09,.89,1.64,2.25,1.64,4.07v10.19h-2.91Zm-1.23-7.08l-1.61,.05c-1.21,.04-2.11,.25-2.71,.66s-.89,1.01-.89,1.83c0,1.18,.67,1.76,2.02,1.76,.97,0,1.74-.28,2.32-.83s.87-1.29,.87-2.21v-1.26Z"/><path class="g" d="M239.04,206.7h-4.17v-8.93c0-1.1-.18-1.93-.55-2.48s-.95-.83-1.74-.83c-1.07,0-1.84,.39-2.32,1.18s-.72,2.07-.72,3.87v7.19h-4.17v-15.29h3.19l.56,1.96h.23c.41-.7,1-1.25,1.78-1.65s1.66-.59,2.67-.59c2.29,0,3.84,.75,4.65,2.24h.37c.41-.71,1.01-1.26,1.81-1.65,.8-.39,1.7-.59,2.7-.59,1.73,0,3.04,.44,3.93,1.33s1.33,2.31,1.33,4.27v9.97h-4.18v-8.93c0-1.1-.18-1.93-.55-2.48s-.95-.83-1.74-.83c-1.02,0-1.78,.36-2.29,1.09s-.76,1.89-.76,3.47v7.67Z"/></g></g></g></g></svg>