<?xml version="1.0" encoding="UTF-8"?><svg xmlns="http://www.w3.org/2000/svg" viewBox="0 0 248.57 28.15"><defs><style>.d{fill:#231f20;}</style></defs><g id="a"/><g id="b"><g id="c"><g><path class="d" d="M9.38,4.68c-1.6,0-2.83,.6-3.71,1.8-.88,1.2-1.31,2.87-1.31,5.01,0,4.46,1.67,6.69,5.02,6.69,1.4,0,3.1-.35,5.1-1.05v3.55c-1.64,.68-3.47,1.03-5.5,1.03-2.91,0-5.13-.88-6.67-2.65-1.54-1.76-2.31-4.29-2.31-7.59,0-2.08,.38-3.9,1.13-5.46,.76-1.56,1.84-2.76,3.26-3.6,1.42-.83,3.08-1.25,4.98-1.25s3.89,.47,5.85,1.41l-1.37,3.45c-.75-.36-1.5-.67-2.26-.93-.76-.26-1.5-.4-2.23-.4Z"/><path class="d" d="M39.79,21.42h-4.17V12.5c0-2.21-.82-3.31-2.46-3.31-1.17,0-2.01,.4-2.53,1.19s-.78,2.08-.78,3.86v7.19h-4.17V.15h4.17V4.48c0,.34-.03,1.13-.1,2.38l-.1,1.23h.22c.93-1.49,2.41-2.24,4.43-2.24,1.8,0,3.16,.48,4.09,1.45,.93,.97,1.39,2.35,1.39,4.16v9.97Z"/><path class="d" d="M58.27,21.7c-2.46,0-4.38-.68-5.77-2.04-1.39-1.36-2.08-3.28-2.08-5.77s.64-4.54,1.92-5.94c1.28-1.4,3.05-2.1,5.31-2.1s3.84,.62,5.04,1.85,1.8,2.93,1.8,5.1v2.02h-9.86c.05,1.18,.4,2.11,1.05,2.78s1.58,1,2.76,1c.92,0,1.79-.1,2.61-.29s1.68-.5,2.57-.92v3.23c-.73,.36-1.51,.64-2.34,.81-.83,.18-1.84,.27-3.04,.27Zm-.59-12.88c-.88,0-1.58,.28-2.08,.84-.5,.56-.79,1.36-.86,2.39h5.85c-.02-1.03-.29-1.83-.81-2.39-.52-.56-1.22-.84-2.11-.84Z"/><path class="d" d="M83.62,9.27h-3.61v12.15h-4.17V9.27h-2.3v-2.01l2.3-1.12v-1.12c0-1.74,.43-3.01,1.29-3.81,.86-.8,2.23-1.2,4.12-1.2,1.44,0,2.72,.21,3.84,.64l-1.07,3.06c-.84-.26-1.61-.4-2.32-.4-.59,0-1.02,.18-1.29,.53-.26,.35-.4,.8-.4,1.35v.96h3.61v3.13Z"/><path class="d" d="M103.95,16.89c0,1.57-.54,2.76-1.63,3.58-1.09,.82-2.72,1.23-4.89,1.23-1.11,0-2.06-.08-2.84-.23-.78-.15-1.52-.37-2.2-.66v-3.45c.77,.36,1.65,.67,2.62,.92s1.83,.37,2.56,.37c1.51,0,2.27-.44,2.27-1.31,0-.33-.1-.59-.3-.8-.2-.21-.55-.44-1.04-.7s-1.15-.56-1.97-.91c-1.18-.49-2.04-.95-2.59-1.37-.55-.42-.95-.9-1.2-1.44-.25-.54-.38-1.21-.38-2,0-1.36,.53-2.41,1.58-3.15,1.05-.74,2.54-1.11,4.48-1.11s3.63,.4,5.37,1.2l-1.26,3.01c-.77-.33-1.48-.6-2.15-.81-.67-.21-1.34-.31-2.04-.31-1.23,0-1.85,.33-1.85,1,0,.37,.2,.7,.59,.97s1.26,.68,2.6,1.22c1.19,.48,2.07,.93,2.62,1.35,.56,.42,.97,.9,1.23,1.45,.26,.55,.4,1.2,.4,1.96Z"/><path class="d" d="M120.91,18.38c.73,0,1.6-.16,2.62-.48v3.1c-1.04,.46-2.32,.7-3.83,.7-1.67,0-2.88-.42-3.64-1.26-.76-.84-1.14-2.11-1.14-3.79v-7.37h-2v-1.76l2.3-1.39,1.2-3.23h2.67v3.25h4.28v3.13h-4.28v7.37c0,.59,.17,1.03,.5,1.31,.33,.28,.77,.42,1.32,.42Z"/><path class="d" d="M143.61,21.42l-.81-2.08h-.11c-.7,.88-1.42,1.5-2.17,1.84-.74,.34-1.71,.51-2.91,.51-1.47,0-2.62-.42-3.47-1.26-.84-.84-1.26-2.03-1.26-3.58s.57-2.82,1.7-3.59,2.85-1.2,5.13-1.28l2.65-.08v-.67c0-1.55-.79-2.32-2.38-2.32-1.22,0-2.66,.37-4.31,1.11l-1.38-2.82c1.76-.92,3.71-1.38,5.85-1.38s3.62,.45,4.72,1.34c1.09,.89,1.64,2.25,1.64,4.07v10.19h-2.91Zm-1.23-7.08l-1.61,.05c-1.21,.04-2.12,.25-2.71,.66-.59,.4-.89,1.01-.89,1.83,0,1.18,.67,1.76,2.02,1.76,.97,0,1.74-.28,2.32-.83,.58-.56,.87-1.29,.87-2.21v-1.26Z"/><path class="d" d="M171.39,6.14v2.12l-2.39,.62c.44,.68,.66,1.45,.66,2.3,0,1.64-.57,2.92-1.72,3.83s-2.73,1.37-4.76,1.37l-.75-.04-.62-.07c-.43,.33-.64,.69-.64,1.09,0,.6,.77,.9,2.3,.9h2.6c1.68,0,2.96,.36,3.83,1.08s1.32,1.78,1.32,3.17c0,1.79-.75,3.17-2.24,4.16s-3.63,1.48-6.42,1.48c-2.13,0-3.76-.37-4.89-1.11s-1.69-1.78-1.69-3.12c0-.92,.29-1.69,.86-2.31s1.42-1.06,2.53-1.33c-.43-.18-.8-.48-1.12-.9s-.48-.85-.48-1.32c0-.58,.17-1.07,.51-1.46s.83-.77,1.46-1.14c-.8-.35-1.44-.9-1.91-1.67s-.7-1.67-.7-2.71c0-1.67,.54-2.96,1.63-3.87,1.08-.91,2.63-1.37,4.65-1.37,.43,0,.94,.04,1.52,.12,.59,.08,.96,.13,1.13,.17h5.33Zm-11.8,17.45c0,.57,.28,1.03,.83,1.35s1.32,.49,2.32,.49c1.5,0,2.67-.21,3.51-.62s1.27-.97,1.27-1.68c0-.57-.25-.97-.75-1.19s-1.28-.33-2.32-.33h-2.16c-.77,0-1.41,.18-1.92,.54s-.77,.84-.77,1.43Zm1.52-12.44c0,.83,.19,1.49,.57,1.97s.96,.72,1.73,.72,1.36-.24,1.72-.72,.55-1.14,.55-1.97c0-1.84-.76-2.76-2.27-2.76s-2.3,.92-2.3,2.76Z"/><path class="d" d="M189.71,5.85c.57,0,1.03,.04,1.41,.12l-.31,3.91c-.34-.09-.75-.14-1.23-.14-1.33,0-2.37,.34-3.11,1.03s-1.11,1.64-1.11,2.87v7.78h-4.17V6.14h3.16l.62,2.57h.21c.47-.86,1.11-1.55,1.92-2.07,.81-.52,1.68-.79,2.63-.79Z"/><path class="d" d="M210.87,21.42l-.81-2.08h-.11c-.7,.88-1.42,1.5-2.17,1.84s-1.71,.51-2.91,.51c-1.47,0-2.62-.42-3.47-1.26s-1.26-2.03-1.26-3.58,.57-2.82,1.7-3.59,2.85-1.2,5.13-1.28l2.65-.08v-.67c0-1.55-.79-2.32-2.38-2.32-1.22,0-2.66,.37-4.31,1.11l-1.38-2.82c1.76-.92,3.71-1.38,5.85-1.38s3.62,.45,4.72,1.34c1.09,.89,1.64,2.25,1.64,4.07v10.19h-2.91Zm-1.23-7.08l-1.61,.05c-1.21,.04-2.11,.25-2.71,.66s-.89,1.01-.89,1.83c0,1.18,.67,1.76,2.02,1.76,.97,0,1.74-.28,2.32-.83s.87-1.29,.87-2.21v-1.26Z"/><path class="d" d="M239.04,21.42h-4.17V12.5c0-1.1-.18-1.93-.55-2.48s-.95-.83-1.74-.83c-1.07,0-1.84,.39-2.32,1.18s-.72,2.07-.72,3.87v7.19h-4.17V6.14h3.19l.56,1.96h.23c.41-.7,1-1.25,1.78-1.65s1.66-.59,2.67-.59c2.29,0,3.84,.75,4.65,2.24h.37c.41-.71,1.01-1.26,1.81-1.65,.8-.39,1.7-.59,2.7-.59,1.73,0,3.04,.44,3.93,1.33s1.33,2.31,1.33,4.27v9.97h-4.18V12.5c0-1.1-.18-1.93-.55-2.48s-.95-.83-1.74-.83c-1.02,0-1.78,.36-2.29,1.09s-.76,1.89-.76,3.47v7.67Z"/></g></g></g></svg>